<?xml version="1.0" encoding="utf-8"?>
<!-- Generator: Adobe Illustrator 16.0.0, SVG Export Plug-In . SVG Version: 6.00 Build 0)  -->
<!DOCTYPE svg PUBLIC "-//W3C//DTD SVG 1.1//EN" "http://www.w3.org/Graphics/SVG/1.1/DTD/svg11.dtd">
<svg version="1.1" id="Warstwa_1" xmlns="http://www.w3.org/2000/svg" xmlns:xlink="http://www.w3.org/1999/xlink" x="0px" y="0px"
	 width="183.45px" height="23.301px" viewBox="148.47 377.092 183.45 23.301" enable-background="new 148.47 377.092 183.45 23.301"
	 xml:space="preserve">
<path fill="#9BC43C" d="M197.892,395.458v-13.119c0-2.249,0.844-3.748,2.53-4.498c0.792-0.333,1.729-0.5,2.811-0.5
	c4.935,0.083,8.308,0.25,10.121,0.5v4.279h-8.715c-0.771,0-1.25,0.187-1.437,0.562c-0.125,0.291-0.187,0.688-0.187,1.188v2.592
	l8.871,0.312v4.248l-8.871,0.281v2.592c0,0.792,0.219,1.27,0.656,1.437c0.312,0.125,0.74,0.188,1.28,0.188h8.402v4.248
	c-1.5,0.208-4.508,0.375-9.027,0.5l-0.781,0.031c-0.166,0-0.364,0-0.593,0c-0.229,0-0.525-0.016-0.89-0.047
	s-0.822-0.141-1.375-0.328c-0.553-0.188-1.02-0.448-1.406-0.781c-0.385-0.333-0.713-0.818-0.983-1.453
	C198.029,397.056,197.892,396.312,197.892,395.458L197.892,395.458z M215.197,388.711c0-1.916,0.119-3.556,0.359-4.919
	c0.24-1.363,0.651-2.566,1.233-3.608c1.124-2.062,3.207-3.092,6.247-3.092c1.853,0,3.336,0.078,4.451,0.234s2.327,0.453,3.64,0.89
	v3.998c0,0-0.074-0.005-0.22-0.015c-0.145-0.01-0.344-0.031-0.593-0.063c-0.25-0.031-0.536-0.062-0.859-0.094
	s-0.688-0.068-1.093-0.109c-0.406-0.041-0.817-0.073-1.233-0.093c-0.938-0.063-1.739-0.094-2.405-0.094
	c-0.667,0-1.146,0.016-1.438,0.047c-0.291,0.031-0.604,0.094-0.937,0.187c-0.333,0.093-0.594,0.24-0.781,0.438
	c-0.188,0.198-0.37,0.463-0.546,0.796c-0.176,0.333-0.317,0.75-0.421,1.25c-0.187,1.145-0.282,2.812-0.282,4.998
	c0,2.187,0.276,3.78,0.828,4.779c0.552,0.999,1.661,1.5,3.327,1.5c1.937,0,3.842-0.063,5.716-0.188l0.938-0.093v3.998
	c-1.75,0.625-4.154,0.937-7.215,0.937c-0.292,0-0.583,0-0.875,0c-2.853-0.041-4.883-1.072-6.09-3.092
	C215.781,395.364,215.197,392.501,215.197,388.711L215.197,388.711z M233.406,392.99c-0.146-1.416-0.219-2.821-0.219-4.217
	c0-1.395,0.083-2.681,0.25-3.857c0.167-1.177,0.391-2.176,0.672-2.999c0.28-0.822,0.65-1.525,1.109-2.108
	c0.458-0.583,0.926-1.041,1.405-1.375c0.479-0.333,1.062-0.593,1.749-0.78c1.103-0.312,2.285-0.469,3.545-0.469
	c1.259,0,2.196,0.031,2.811,0.093c0.615,0.063,1.271,0.188,1.968,0.376c0.698,0.187,1.281,0.447,1.75,0.78
	c0.468,0.333,0.933,0.792,1.39,1.375c0.458,0.583,0.822,1.281,1.093,2.092c0.583,1.812,0.875,4.154,0.875,7.028
	c0,3.478-0.489,6.152-1.468,8.027c-0.5,1-1.302,1.812-2.405,2.436c-1.125,0.625-2.937,0.938-5.435,0.938
	c-2.54,0-4.342-0.292-5.404-0.874c-1.145-0.604-1.958-1.385-2.437-2.343C233.969,395.78,233.552,394.406,233.406,392.99
	L233.406,392.99z M238.888,383.62c-0.177,0.521-0.317,1.207-0.421,2.062c-0.104,0.854-0.157,1.817-0.157,2.889
	s0.017,1.905,0.047,2.499c0.031,0.594,0.083,1.14,0.156,1.64c0.073,0.5,0.182,0.911,0.328,1.233
	c0.146,0.323,0.317,0.604,0.516,0.843c0.198,0.239,0.453,0.422,0.765,0.547c0.604,0.229,1.363,0.343,2.28,0.343
	s1.625-0.088,2.124-0.266c0.5-0.176,0.921-0.52,1.265-1.031c0.343-0.509,0.578-1.192,0.703-2.046
	c0.125-0.854,0.187-1.957,0.187-3.311c0-1.354-0.046-2.442-0.141-3.264c-0.094-0.823-0.229-1.505-0.407-2.046
	c-0.176-0.542-0.442-0.942-0.796-1.203c-0.354-0.26-0.739-0.438-1.156-0.531s-0.974-0.14-1.671-0.14s-1.244,0.036-1.64,0.109
	c-0.396,0.073-0.781,0.24-1.155,0.5C239.341,382.709,239.065,383.099,238.888,383.62L238.888,383.62z M254.271,400.206v-17.773
	c0-1.812,0.52-3.113,1.562-3.904c1.041-0.792,2.26-1.188,3.654-1.188c0.041,0,0.083,0,0.125,0c4.935,0.083,8.309,0.25,10.119,0.5
	v4.279h-8.714c-0.771,0-1.25,0.188-1.438,0.562c-0.125,0.292-0.187,0.688-0.187,1.188v2.592l8.87,0.312v4.248l-8.87,0.281v8.902
	L254.271,400.206L254.271,400.206z M272.012,392.99c-0.145-1.416-0.219-2.821-0.219-4.217c0-1.395,0.084-2.681,0.25-3.857
	c0.167-1.177,0.391-2.176,0.672-2.999c0.281-0.822,0.65-1.525,1.109-2.108c0.458-0.583,0.927-1.041,1.406-1.375
	c0.479-0.333,1.062-0.593,1.749-0.78c1.104-0.312,2.286-0.469,3.546-0.469c1.259,0,2.196,0.031,2.811,0.093
	c0.615,0.063,1.27,0.188,1.968,0.376c0.698,0.187,1.281,0.447,1.75,0.78c0.468,0.333,0.931,0.792,1.389,1.375
	c0.458,0.583,0.823,1.281,1.095,2.092c0.582,1.812,0.874,4.154,0.874,7.028c0,3.478-0.489,6.152-1.468,8.027
	c-0.5,1-1.302,1.812-2.405,2.436c-1.124,0.625-2.936,0.938-5.435,0.938c-2.541,0-4.342-0.292-5.404-0.874
	c-1.146-0.604-1.957-1.385-2.437-2.343C272.574,395.78,272.158,394.406,272.012,392.99L272.012,392.99z M277.494,383.62
	c-0.176,0.521-0.318,1.207-0.421,2.062c-0.104,0.854-0.156,1.817-0.156,2.889s0.015,1.905,0.046,2.499
	c0.032,0.594,0.083,1.14,0.156,1.64c0.073,0.5,0.183,0.911,0.329,1.233c0.146,0.323,0.318,0.604,0.516,0.843
	c0.199,0.239,0.452,0.422,0.765,0.547c0.604,0.229,1.364,0.343,2.279,0.343c0.917,0,1.625-0.088,2.126-0.266
	c0.499-0.176,0.92-0.52,1.264-1.031c0.343-0.509,0.577-1.192,0.702-2.046c0.125-0.854,0.188-1.957,0.188-3.311
	c0-1.354-0.048-2.442-0.141-3.264c-0.094-0.823-0.229-1.505-0.407-2.046c-0.176-0.542-0.442-0.942-0.797-1.203
	c-0.354-0.26-0.738-0.438-1.155-0.531s-0.973-0.14-1.671-0.14c-0.697,0-1.244,0.036-1.639,0.109c-0.396,0.073-0.781,0.24-1.156,0.5
	C277.948,382.709,277.671,383.099,277.494,383.62L277.494,383.62z M292.908,392.99c-0.146-1.416-0.219-2.821-0.219-4.217
	c0-1.395,0.083-2.681,0.25-3.857c0.167-1.177,0.39-2.176,0.672-2.999c0.281-0.822,0.65-1.525,1.109-2.108
	c0.458-0.583,0.926-1.041,1.405-1.375c0.479-0.333,1.062-0.593,1.75-0.78c1.103-0.312,2.285-0.469,3.545-0.469
	s2.197,0.031,2.812,0.093c0.613,0.063,1.27,0.188,1.968,0.376c0.698,0.187,1.28,0.447,1.749,0.78s0.932,0.792,1.39,1.375
	c0.458,0.583,0.822,1.281,1.094,2.092c0.583,1.812,0.875,4.154,0.875,7.028c0,3.478-0.49,6.152-1.469,8.027
	c-0.5,1-1.302,1.812-2.405,2.436c-1.124,0.625-2.937,0.938-5.436,0.938c-2.539,0-4.342-0.292-5.403-0.874
	c-1.146-0.604-1.958-1.385-2.437-2.343C293.47,395.78,293.054,394.406,292.908,392.99L292.908,392.99z M298.39,383.62
	c-0.177,0.521-0.317,1.207-0.422,2.062c-0.104,0.854-0.155,1.817-0.155,2.889s0.015,1.905,0.046,2.499
	c0.031,0.594,0.083,1.14,0.156,1.64c0.073,0.5,0.183,0.911,0.328,1.233c0.146,0.323,0.318,0.604,0.516,0.843
	c0.198,0.239,0.453,0.422,0.766,0.547c0.604,0.229,1.363,0.343,2.279,0.343c0.917,0,1.626-0.088,2.125-0.266
	c0.499-0.176,0.921-0.52,1.265-1.031c0.344-0.509,0.578-1.192,0.702-2.046c0.126-0.854,0.188-1.957,0.188-3.311
	c0-1.354-0.048-2.442-0.142-3.264c-0.093-0.823-0.229-1.505-0.406-2.046c-0.177-0.542-0.441-0.942-0.797-1.203
	c-0.354-0.26-0.738-0.438-1.154-0.531c-0.417-0.093-0.974-0.14-1.672-0.14s-1.244,0.036-1.641,0.109
	c-0.396,0.073-0.78,0.24-1.154,0.5C298.843,382.709,298.567,383.099,298.39,383.62L298.39,383.62z M313.899,400.206v-22.864h10.15
	c1.25,0,2.343,0.213,3.279,0.64c0.938,0.426,1.691,0.984,2.265,1.671c0.572,0.688,1.036,1.541,1.39,2.561
	c0.625,1.77,0.938,3.987,0.938,6.653c0,7.559-2.624,11.338-7.871,11.338L313.899,400.206L313.899,400.206z M319.02,395.77h4.562
	c1.146,0,1.968-0.572,2.468-1.717c0.499-1.146,0.749-2.78,0.749-4.904c0-2.124-0.136-3.717-0.405-4.779
	c-0.271-1.062-0.625-1.759-1.062-2.092c-0.438-0.333-1.021-0.5-1.749-0.5h-4.562V395.77L319.02,395.77z"/>
<path fill="#9BC43C" d="M151.503,394.267c-3.187-4.31-3.031-11.614-3.031-11.614c11.742-5.72,17.646-3.051,23.223,8.603
	c0,0,4.188-10.646,11.814-10.108c7.625,0.538,9.666,3.01,9.666,3.01s-1.315,11.561-7.544,12.743
	c-6.23,1.183-8.102-0.029-10.334-0.718l1.339-2.346h6.874l-4.507-1.148l8.159-5.089l-9.372,3.629l0.994-4.274l-5.155,7.313
	l-3.223,0.215c-4.117-0.357-7.784-9.242-6.443-5.592l1.339,3.651l-11.382-6.124l11.869,8.065l-7.196,0.215l13.196,1.187
	C170.102,400.573,154.688,398.577,151.503,394.267z"/>
</svg>
